<?xml version="1.0" encoding="utf-8"?>
<!-- Generator: Adobe Illustrator 27.8.1, SVG Export Plug-In . SVG Version: 6.00 Build 0)  -->
<svg version="1.1" id="Isolation_Mode" xmlns="http://www.w3.org/2000/svg" xmlns:xlink="http://www.w3.org/1999/xlink" x="0px"
	 y="0px" viewBox="0 0 198.4 198.4" style="enable-background:new 0 0 198.4 198.4;" xml:space="preserve">
<style type="text/css">
	.st0{fill:url(#SVGID_1_);}
</style>
<linearGradient id="SVGID_1_" gradientUnits="userSpaceOnUse" x1="67.0364" y1="36.4319" x2="145.1856" y2="151.9061">
	<stop  offset="5.528779e-02" style="stop-color:#3466AD"/>
	<stop  offset="0.9994" style="stop-color:#2EBDB6"/>
</linearGradient>
<path class="st0" d="M137.4,117.4c-13.7,7.9-27,15.5-40.8,23.5c0-6.3,0-12.1,0.1-17.9c0-0.6,0.6-1.3,1.1-1.7
	c18.3-10.6,36.6-21.1,54.9-31.7c0.2-0.1,0.5-0.1,0.9-0.3c0.1,0.9,0.1,1.7,0.1,2.4c0,15.4,0,30.8,0,46.2c0,1.8-0.5,2.8-2.1,3.7
	c-17.3,9.6-34.6,19.3-51.9,29c-1.4,0.8-2.4,0.8-3.8,0c-16.6-9.7-33.3-19.2-49.9-28.9c-0.8-0.5-1.5-1.8-1.6-2.7
	c-0.2-5.1,0-10.2-0.1-15.2c0-1.5,0.6-2.2,1.8-2.9c29.6-17.1,59.2-34.2,88.9-51.2c1.7-1,2.4-2,2.3-3.9c-0.2-3,0-6.1,0-9.7
	c-31.1,17.9-61.8,35.6-92.9,53.6c0-1.4,0-2.2,0-3c0-16,0-32,0-48c0-1.8,0.5-2.8,2.1-3.7c15.5-8.9,31-17.9,46.5-26.7
	c1.2-0.7,2.8-1.1,4.2-1.1c9.1-0.1,18.2-0.1,27.2-0.1c0.7,0,1.4,0,2.1,0c0.1,0.2,0.1,0.4,0.2,0.6c-3.5,2-6.9,4.1-10.4,6.1
	C98.7,44,80.9,54.3,63.1,64.5c-1.6,0.9-2.2,1.9-2.1,3.7c0.1,4.2,0,8.4,0,13.1c31.1-18,61.8-35.6,92.7-53.5c0.1,1.1,0.2,1.8,0.2,2.5
	c0,15.1,0,30.2,0,45.2c0,1.7-0.5,2.6-2,3.5c-30.2,17.3-60.3,34.7-90.6,52.3c0.7,0.5,1.2,0.9,1.8,1.3c11,6.4,22.1,12.7,33.1,19.1
	c1.3,0.7,2.3,1,3.6,0.2c11.9-7,23.9-13.9,35.9-20.7c1.3-0.8,1.9-1.5,1.9-3.1C137.4,124.7,137.4,121.3,137.4,117.4z"/>
</svg>
